<svg xmlns="http://www.w3.org/2000/svg" width="793" height="551.732" xmlns:v="https://vecta.io/nano"><ellipse cx="158" cy="539.732" rx="158" ry="12" fill="#e6e6e6"/><path d="M120.772 122.42c27.497-11.695 61.744-4.285 95.2.858.3-6.228 4.084-13.808.132-18.153-4.8-5.28-4.36-10.825-1.47-16.404 7.388-14.265-3.197-29.444-13.884-42.065a23.67 23.67 0 0 0-19.755-8.292l-19.798 1.414a23.71 23.71 0 0 0-21.053 16.946h0c-4.727 6.43-7.257 12.84-5.664 19.22-7.08 4.84-8.27 10.68-5.1 17.264 2.698 4.146 2.67 8.182-.123 12.106a55.89 55.89 0 0 0-8.31 16.506zM774.2 476.963H213.8A18.79 18.79 0 0 1 195 458.172h0q304.727-35.415 598 0h0a18.79 18.79 0 0 1-18.791 18.791z" fill="#2f2e41"/><path d="M793 459.277l-598-1.105 69.638-117.168V83.996a23.75 23.75 0 0 1 23.754-23.754h407.9a23.75 23.75 0 0 1 23.754 23.754v258.776z" fill="#3f3d56"/><path d="M287.85 76.823a7.75 7.75 0 0 0-7.738 7.738v234.336a7.75 7.75 0 0 0 7.738 7.738h412.3a7.75 7.75 0 0 0 7.738-7.738V84.56a7.75 7.75 0 0 0-7.738-7.738z" fill="#fff"/><path d="M289.578 357.584c-1.294.002-2.47.755-3.013 1.93L265.2 405.94c-.472 1.027-.39 2.223.22 3.175s1.662 1.527 2.792 1.527h449.092c1.15 0 2.217-.595 2.82-1.573s.66-2.2.145-3.226l-23.213-46.425a3.3 3.3 0 0 0-2.965-1.833z" fill="#2f2e41"/><circle cx="492.342" cy="67.98" r="4.974" fill="#fff"/><path d="M448.2 419.484a3.32 3.32 0 0 0-3.202 2.454l-5.357 19.896a3.32 3.32 0 0 0 .57 2.88c.628.82 1.6 1.3 2.632 1.3h101.874c1.073 0 2.08-.52 2.7-1.393a3.32 3.32 0 0 0 .432-3.008l-6.887-19.896a3.32 3.32 0 0 0-3.134-2.231zm271.846-82.35v4.42h-455.74l.343-.552v-3.87h455.397z" fill="#2f2e41"/><circle cx="707.335" cy="77.375" r="77.375" fill="#6c63ff"/><g fill="#fff"><path d="M739.4 111.09h-64.11c-2.44-.002-4.42-1.98-4.42-4.42V67.98c.003-2.44 1.98-4.42 4.42-4.42h64.11c2.44.003 4.42 1.98 4.42 4.42v38.688c-.002 2.44-1.98 4.42-4.42 4.42zm-64.11-43.11v38.688h64.114L739.4 67.98z"/><path d="M727.23 67.98h-39.793V50.294c0-12.8 8.368-22.107 19.896-22.107s19.896 9.297 19.896 22.107zm-35.372-4.42h30.95V50.294c0-10.413-6.363-17.686-15.475-17.686S691.86 39.88 691.86 50.294z"/><circle cx="707.335" cy="86.218" r="4.421"/></g><g fill="#e6e6e6"><path d="M653.32 247.15H334.68a5.91 5.91 0 0 1-5.901-5.901v-79.04a5.91 5.91 0 0 1 5.901-5.901h318.64a5.91 5.91 0 0 1 5.901 5.901v79.04a5.91 5.91 0 0 1-5.901 5.901zm-318.64-88.482c-1.954.002-3.538 1.586-3.54 3.54v79.04c.002 1.954 1.586 3.538 3.54 3.54h318.64c1.954-.002 3.538-1.586 3.54-3.54v-79.04c-.002-1.954-1.586-3.538-3.54-3.54z"/><circle cx="384.19" cy="198.695" r="24.036"/><path d="M439.703 182.67c-1.433-.002-2.758.76-3.475 2a3.99 3.99 0 0 0 0 4c.717 1.23 2.042 2.003 3.475 2H628.56a4.01 4.01 0 0 0 4.006-4.006 4.01 4.01 0 0 0-4.006-4.006zm0 24.038a4.01 4.01 0 0 0-3.47 2.003c-.716 1.24-.716 2.767 0 4.006a4.01 4.01 0 0 0 3.47 2.003h81.266a4.01 4.01 0 0 0 3.47-2.003c.716-1.24.716-2.767 0-4.006a4.01 4.01 0 0 0-3.47-2.003z"/></g><path d="M263.522 208.328l-58.903 31.316-.746-26.096c19.226-3.21 37.517-8.797 54.43-17.895l6.16-15.22A10.32 10.32 0 0 1 282 177.755h0a10.32 10.32 0 0 1-.908 14.069z" fill="#ffb8b8"/><g fill="#2f2e41"><path d="M119.598 389.133h0c-.87-3.188-.335-6.595 1.47-9.363l12.94-19.858c6.34-9.73 19.02-13.075 29.335-7.74h0c-5.438 9.256-4.68 17.377 1.878 24.434a117.63 117.63 0 0 0-27.936 19.045c-3.092 2.108-7.01 2.59-10.522 1.297s-6.18-4.205-7.164-7.815z"/><path d="M266.205 363.17h0c-3.982 6.636-11.132 10.72-18.87 10.78l-85.96.65-3.728-21.623 38.026-11.184-32.06-24.605 35.044-41.008 63.65 59.324c7.667 7.146 9.293 18.68 3.9 27.666z"/><path d="M147.953 511.045h-20.13c-18.075-123.898-36.474-248.142 17.895-294.515l64.122 10.44-8.202 54.43-35.79 41.008z"/><path d="M165.65 539.112h0c-3.188.87-6.595.335-9.363-1.47l-21.86-2.938c-9.73-6.34-13.076-19.02-7.74-29.335h0c9.257 5.437 17.377 4.68 24.434-1.88 4.986 10.067 13.2 9.453 21.047 17.935 2.108 3.09 2.59 7.01 1.297 10.522s-4.205 6.18-7.815 7.164z"/></g><path d="M195.672 133.767l-37.28-8.947c6.192-12.674 6.702-26.776 3.728-41.754l25.35-.746c.794 18.625 3.197 36.026 8.202 51.447z" fill="#ffb8b8"/><path d="M205.918 249.418c-27.14 18.493-46.314.633-60.947-26.923 2.033-16.862-1.26-37.04-7.357-58.966-5.622-20.048 5.02-41.066 24.506-48.4h0l32.06 13.42c27.224 22.2 32.582 46.227 22.368 71.578z" fill="#6c63ff"/><path d="M127.82 152.408l-29.824 15.658 52.938 31.316 7.366 18.17c.994 2.45.936 5.202-.158 7.6s-3.13 4.26-5.63 5.12h0c-2.85.983-5.997.575-8.503-1.103s-4.082-4.43-4.26-7.442l-.745-12.663-67.284-22.204c-4.593-1.516-8.234-5.06-9.873-9.61h0c-2.424-6.733.002-14.254 5.903-18.303l54.105-37.118z" fill="#ffb8b8"/><path d="M157.646 155.4c-12.44-5.45-23.75.47-38.026 5.22l-2.237-39.517c14.176-7.556 27.692-9.593 40.263-3.728z" fill="#6c63ff"/><circle cx="172.525" cy="78.093" r="23.802" fill="#ffb8b8"/><path d="M201 75.09c-23.566 2.308-41.523-1.546-53-12.52v-8.838h51z" fill="#2f2e41"/></svg>