<svg xmlns="http://www.w3.org/2000/svg" width="101" height="100" fill="none" xmlns:v="https://vecta.io/nano"><g clip-path="url(#A)"><path d="M87.543 87.5l1.074.78c-.716.65-1.074 1.432-1.074 2.344 0 .846.31 1.58.928 2.197s1.35.928 2.197.928h5.176l1.66 1.27c-2.54 3.32-5.86 4.98-9.96 4.98h-75c-3.45 0-6.397-1.22-8.838-3.662S.043 90.95.043 87.5v-75c0-3.45 1.22-6.396 3.662-8.838S9.092 0 12.543 0h75c4.1 0 7.422 1.66 9.96 4.98l-1.66 1.27h-5.176c-.846 0-1.58.31-2.197.928s-.928 1.35-.928 2.197c0 .912.358 1.693 1.074 2.344l-1.074.78 12.5 9.375-12.5 9.375 12.5 9.375L87.543 50l12.5 9.375-12.5 9.375 12.5 9.375-12.5 9.375zm-34.375 6.25h6.25c.846 0 1.58-.31 2.197-.928s.928-1.35.928-2.197-.31-1.58-.928-2.197-1.35-.928-2.197-.928h-6.25c-.846 0-1.58.31-2.197.928s-.928 1.35-.928 2.197.31 1.58.928 2.197 1.35.928 2.197.928zM68.793 75c3.45 0 6.396-1.22 8.838-3.662s3.662-5.387 3.662-8.838-1.22-6.397-3.662-8.838S72.244 50 68.793 50s-6.397 1.22-8.838 3.662-3.662 5.387-3.662 8.838 1.22 6.397 3.662 8.838S65.342 75 68.793 75zM34.418 93.75h6.25c.846 0 1.58-.31 2.197-.928s.928-1.35.928-2.197-.31-1.58-.928-2.197-1.35-.928-2.197-.928h-6.25c-.846 0-1.58.31-2.197.928s-.928 1.35-.928 2.197.31 1.58.928 2.197 1.35.928 2.197.928zm-18.75 0h6.25c.846 0 1.58-.31 2.197-.928s.928-1.35.928-2.197-.31-1.58-.928-2.197-1.35-.928-2.197-.928h-6.25c-.846 0-1.58.31-2.197.928s-.928 1.35-.928 2.197.31 1.58.928 2.197 1.35.928 2.197.928zm-9.375-12.5c0 .846.31 1.58.928 2.197s1.35.928 2.197.928 1.58-.31 2.197-.928.928-1.35.928-2.197V75c0-.846-.31-1.58-.928-2.197s-1.35-.928-2.197-.928-1.58.31-2.197.928-.928 1.35-.928 2.197v6.25zm0-18.75c0 .846.31 1.58.928 2.197s1.35.928 2.197.928 1.58-.31 2.197-.928.928-1.35.928-2.197v-6.25c0-.846-.31-1.58-.928-2.197s-1.35-.928-2.197-.928-1.58.31-2.197.928-.928 1.35-.928 2.197v6.25zm0-18.75c0 .846.31 1.58.928 2.197s1.35.928 2.197.928 1.58-.31 2.197-.928.928-1.35.928-2.197V37.5c0-.846-.31-1.58-.928-2.197s-1.35-.928-2.197-.928-1.58.31-2.197.928-.928 1.35-.928 2.197v6.25zm3.125-28.125c-.846 0-1.58.31-2.197.928s-.928 1.35-.928 2.197V25c0 .846.31 1.58.928 2.197s1.35.928 2.197.928 1.58-.31 2.197-.928.928-1.35.928-2.197v-6.25c0-.846-.31-1.58-.928-2.197s-1.35-.928-2.197-.928zm12.5-9.375h-6.25c-.846 0-1.58.31-2.197.928s-.928 1.35-.928 2.197.31 1.58.928 2.197 1.35.928 2.197.928h6.25c.846 0 1.58-.31 2.197-.928s.928-1.35.928-2.197-.31-1.58-.928-2.197-1.35-.928-2.197-.928zm18.75 0h-6.25c-.846 0-1.58.31-2.197.928s-.928 1.35-.928 2.197.31 1.58.928 2.197 1.35.928 2.197.928h6.25c.846 0 1.58-.31 2.197-.928s.928-1.35.928-2.197-.31-1.58-.928-2.197-1.35-.928-2.197-.928zM37.543 25c-3.45 0-6.396 1.22-8.838 3.662s-3.662 5.387-3.662 8.838 1.22 6.397 3.662 8.838S34.092 50 37.543 50s6.397-1.22 8.838-3.662 3.662-5.387 3.662-8.838-1.22-6.396-3.662-8.838S40.994 25 37.543 25zM59.418 6.25h-6.25c-.846 0-1.58.31-2.197.928s-.928 1.35-.928 2.197.31 1.58.928 2.197 1.35.928 2.197.928h6.25c.846 0 1.58-.31 2.197-.928s.928-1.35.928-2.197-.31-1.58-.928-2.197-1.35-.928-2.197-.928zm7.96 19.2a2.75 2.75 0 0 0-2.197-.342c-.78.195-1.4.683-1.855 1.465L37.934 70.4c-.39.716-.488 1.497-.293 2.344s.65 1.48 1.367 1.904 1.465.52 2.246.293a2.83 2.83 0 0 0 1.758-1.416L68.5 29.6c.39-.716.472-1.48.244-2.295s-.684-1.432-1.367-1.855zm10.79-19.19h-6.25c-.846 0-1.58.31-2.197.928s-.928 1.35-.928 2.197.31 1.58.928 2.197 1.35.928 2.197.928h6.25c.846 0 1.58-.31 2.197-.928s.928-1.35.928-2.197-.31-1.58-.928-2.197-1.35-.928-2.197-.928zm0 81.25h-6.25c-.846 0-1.58.31-2.197.928s-.928 1.35-.928 2.197.31 1.58.928 2.197 1.35.928 2.197.928h6.25c.846 0 1.58-.31 2.197-.928s.928-1.35.928-2.197-.31-1.58-.928-2.197-1.35-.928-2.197-.928zM37.592 43.75c-1.725 0-3.206-.618-4.443-1.855s-1.855-2.718-1.855-4.443a5.9 5.9 0 0 1 1.855-4.395 6.14 6.14 0 0 1 4.443-1.807c1.725 0 3.2.602 4.395 1.807s1.807 2.67 1.807 4.395a6.14 6.14 0 0 1-1.807 4.443 5.9 5.9 0 0 1-4.395 1.855zm31.25 12.5c1.725 0 3.2.602 4.394 1.807s1.807 2.67 1.807 4.395a6.14 6.14 0 0 1-1.807 4.443 5.9 5.9 0 0 1-4.394 1.856c-1.725 0-3.206-.618-4.443-1.856s-1.855-2.718-1.855-4.443a5.9 5.9 0 0 1 1.855-4.395 6.14 6.14 0 0 1 4.443-1.807z" fill="#fff"/></g><defs><clipPath id="A"><path fill="#fff" d="M0 0h100.1v100H0z"/></clipPath></defs></svg>
