<svg xmlns="http://www.w3.org/2000/svg" width="100" height="100" fill="none" xmlns:v="https://vecta.io/nano"><path d="M50 100C22.384 100 0 77.616 0 50S22.384 0 50 0s50 22.384 50 50-22.384 50-50 50zm-2.303-22.325v4.572H50v-6.84h-4.572v2.27h2.27zM24.77 52.58H22.5v11.413h2.27v-4.572h2.303V54.85H24.77v-2.27zm27.534 13.68v6.84h2.27v-6.84h-2.27zM50 73.103v2.303h2.303v-2.303H50zm-22.928-2.27v6.84h6.875v-6.84h-6.875zM22.5 48.01v2.27h2.303v-2.27H22.5zm13.75-4.572v2.303h2.303v-2.303H36.25zM50 41.134v4.572h2.303v-4.572H50zm-29.803-6.84v6.84h6.875v-6.84h-6.875zm20.625 43.38v4.572h2.303v-4.572h-2.303zm2.303-36.54h-2.27v4.572h2.27v-2.27h2.303v-4.572h-2.303v2.27zm2.303-4.538v2.27h2.27v-2.27h-2.27zm0 6.84v2.27h2.27v-2.27h-2.27zm-11.48 4.572v2.27h6.875v-2.27h-6.875zm9.178-9.144v-2.27h2.27v-2.303h-2.27v-4.537H36.25v2.27h4.572v2.27H38.52v2.27h-2.27v2.27h-2.27v-2.234h-2.337v-2.27h2.303v2.234h2.303v-2.27h-2.27v-4.537H15.625V45.74H33.98v-2.303h2.27v-4.572h2.303v2.27h2.303v-2.27h2.27zm-13.75 4.572H17.928V32.025h11.447v11.413zm2.27 0v-4.572h2.303v4.572h-2.303zm9.178-6.875v-2.234h2.303v2.234h-2.303zM59.178 61.69v-2.27h-4.606V54.85h-2.27v2.27h-2.27v-2.27h2.27v-6.875H47.73v2.303h-2.337v4.572h-2.27v2.27h2.303v-2.27h2.27v6.84h-4.572v-2.27h-2.303V54.85h-2.27v-2.27h-4.606v-2.27h-2.303v-2.27h-4.572v2.27H24.77v2.27h2.303v2.27h2.303v-2.27h2.303v2.27h-2.303v2.27h2.303v2.27h2.27v-2.27h2.303v-2.27h2.27v2.27h-2.27v2.27h-2.27v4.572h4.572v2.303h-4.606v-2.27h-2.303v2.27h-4.572v-2.27h-2.27v2.27H22.5v15.984h16.053V68.53h2.27v6.875h4.606v-2.27h2.303V68.53h-2.303v-2.27h-2.303v2.27h-2.27V63.96h6.875v2.27h2.303V61.69h4.538v2.303h2.303V61.69h2.303zM36.25 79.944H24.803V68.53H36.25v11.412zm2.303-18.253H36.25v-2.27h2.303v2.27zm4.572 9.144h2.303v2.27h-2.303v-2.27zm16.053-41.078v4.537h2.27v-4.537h-2.27zm-4.606 0h-2.27v6.84H50v2.27h2.303v2.27h2.27v4.572h2.303v-4.572h2.303v4.606h2.27v-2.303h2.303v-4.572h-4.572v-4.572h-4.606v-4.537zM75.197 54.85h-4.572v2.27h-2.303v2.303h-2.27v-6.84h2.27v-2.303h-2.27v2.27H63.75v2.303h-2.303v-4.572h-2.27v4.572h-2.303v2.303l2.303-.034h2.27v4.572h6.875v2.303h-6.875v2.27h-2.27v2.27h-2.303v2.303h2.303v2.27h-2.303v2.303h2.303v2.27h2.27v2.27h-2.27v2.303H77.5V68.53h-2.303v11.412H63.75V68.53h6.875v-9.11h2.303v2.27H77.5v-4.538h-2.27V54.85h2.27v-6.84h-2.303v6.84zm-18.322 9.144v2.27h2.303v-2.27h-2.303zM68.322 52.58v2.27h2.303v-2.27h-2.303zm4.606 11.413v2.303H77.5v-2.303h-4.572zm0-29.666v6.84h6.875v-6.84h-6.875zm-9.178 9.11v2.303h2.303v-2.303H63.75zm-9.178 4.572v2.27h2.303v-2.27h-2.303zm16.053 0v2.27h2.303v-2.27h-2.303zm-4.572 22.825v6.84h6.875v-6.84h-6.875zM63.75 48.01v2.27h2.303v-2.27H63.75zM47.697 34.294v2.303H50v-2.303h-2.303zm16.053-4.537v2.27h4.572v2.27H66.02v2.27h-2.27v-2.27h-2.303v2.303h2.303v2.234h2.303v2.27h2.303v4.572h16.02V29.756H63.75zm18.322 13.68H70.625V32.025h11.447v11.413zM30.784 25.734c1.58 1.066 3.37 1.272 4.778 1.34 1.203.07 3.23.07 5.362.07l9.075.07c1.272.034 5.156.034 8.594.034l5.362-.07c1.41-.07 3.197-.31 4.778-1.34 1.994-1.34 2.99-3.54 2.99-6.53 0-2.406-.997-3.85-1.822-4.675-2.234-2.166-5.672-2.028-6.806-1.994h-.137c-.687 0-3.163.378-6.084 2.028-2.578 1.444-4.812 3.506-6.634 6.084l-.206.516-.172-.275c-1.925-2.887-4.434-4.847-7.22-6.428-2.888-1.65-5.362-1.994-6.05-1.994h-.138c-1.134-.034-4.572-.172-6.806 1.994-1.512 1.444-1.822 3.334-1.822 4.675-.034 2.956.963 5.156 2.956 6.497h0zm27.775-7.7c2.44-1.41 4.297-1.616 4.434-1.616h.24c1.96-.07 3.334.24 4.056.928.447.447.688 1.066.688 1.96 0 3.266-1.547 3.988-4.194 4.125-2.234.103-7.425.07-10.794.034a16.15 16.15 0 0 1 5.569-5.431h0zm-26.33-.79c.653-.62 1.822-.928 3.506-.928h.825c.138 0 1.994.206 4.434 1.616 2.2 1.272 4.09 3.094 5.603 5.43-3.403.034-8.594.07-10.828-.034-2.647-.137-4.194-.86-4.194-4.125 0-.894.206-1.512.653-1.96h0zm22.344 60.43h-2.27v4.572h2.303v-4.572h2.27v-2.27h-2.303v2.27z" fill="#fff"/></svg>
