<svg xmlns="http://www.w3.org/2000/svg" width="101" height="100" fill="none" xmlns:v="https://vecta.io/nano"><g clip-path="url(#A)"><path d="M86.12 31.378c-.652-.13-1.14-.195-1.466-.195-2.41 0-4.497.815-6.256 2.444-3.975-1.76-7.7-3.193-11.144-4.3-5.67-1.825-11.6-3.324-17.79-4.497-.587-1.564-1.466-2.867-2.64-3.9 1.63-7.7 3.812-14.663 6.55-20.92 8.21.587 15.754 2.965 22.63 7.136A49.89 49.89 0 0 1 92.67 23.558c-2.41 2.607-4.594 5.213-6.55 7.82zM40.764 18.67c-1.694 0-3.29.456-4.8 1.37-5.28-3.9-10.6-7.234-15.934-9.97C28.12 3.943 37.18.587 47.215 0c-2.542 5.67-4.594 11.893-6.158 18.67h-.293zm-33.92 6.06c2.216-3.715 5.018-7.234 8.407-10.557 4.43 2.28 9.026 5.083 13.783 8.407-8.407-.195-15.803.52-22.2 2.15zm24.536 3.9c.13 2.02.83 3.796 2.102 5.327s2.85 2.558 4.74 3.08c-.39 4.562-.587 8.895-.587 13 0 2.867.098 6.158.293 9.873-1.434.456-2.705 1.238-3.812 2.346-3.52-1.37-6.908-2.933-10.166-4.692.717-1.434 1.075-2.9 1.075-4.4 0-2.607-.912-4.822-2.737-6.647s-4.04-2.737-6.647-2.737c-2.867 0-5.246 1.108-7.136 3.324-2.737-2.476-5.18-5.05-7.33-7.722.587-2.802 1.466-5.572 2.64-8.31 7.95-2.216 17.14-3.03 27.566-2.444zM6.355 53.96c.196 2.41 1.19 4.448 2.98 6.11a8.97 8.97 0 0 0 6.305 2.493c.717 0 1.5-.13 2.346-.39 4.17 2.41 8.635 4.497 13.392 6.256v.39c0 2.542.863 4.708 2.6 6.5s3.86 2.753 6.403 2.884c1.63 7.95 3.9 15.217 6.843 21.8-6.517-.39-12.675-1.97-18.475-4.74S17.94 88.89 13.735 84.458s-7.543-9.645-10.02-15.64A48.69 48.69 0 0 1 .001 50.049a378.4 378.4 0 0 1 .098-2.639c1.825 2.28 3.9 4.464 6.256 6.55zm42.62 19.257c4.692.847 9.417 1.4 14.174 1.662.456 1.303 1.173 2.51 2.15 3.617-1.5 6.843-2.41 13.5-2.737 19.94-3.324.847-6.386 1.368-9.19 1.564-3.063-6.973-5.44-14.858-7.136-23.656 1.173-.782 2.085-1.825 2.737-3.128zm30.303 4.692c.847-1.043 1.434-2.15 1.76-3.324 4.757-.39 9.352-1 13.783-1.857-3.128 6.126-7.43 11.437-12.903 15.933-.587-3.39-1.466-6.973-2.64-10.753zm-15.933-9.286c-4.562-.26-9.058-.847-13.5-1.76-.717-3.258-2.574-5.507-5.572-6.745-.26-3.845-.39-7.2-.39-10.068 0-4.3.196-8.765.587-13.392.13 0 .293-.065.49-.196s.326-.195.39-.195c2.54 2.476 4.757 4.757 6.647 6.843 5.67 6.256 10.492 13.36 14.467 21.3-1.434 1.108-2.476 2.51-3.128 4.203zm8.7 12.708c.13 0 .49-.033 1.075-.098 1.108 3.975 1.922 7.918 2.444 11.828-1.9 1.108-4.17 2.216-6.843 3.324.456-5.083 1.238-10.134 2.346-15.15.52.065.847.098.978.098zm-.49-23.363c-.065.13-.147.326-.244.587s-.18.456-.244.587C66.96 51.71 62.14 44.966 56.6 38.905c-2.02-2.28-4.43-4.757-7.234-7.43.065 0 .114-.05.147-.147l.05-.147c5.474 1.108 10.72 2.476 15.738 4.106 3.063.977 6.42 2.28 10.07 3.9-.13.652-.195 1.14-.195 1.466 0 1.955.587 3.747 1.76 5.376-2.15 4.105-3.943 8.08-5.376 11.926zm4.594 5.67l1.173-3.52c1.303-3.258 2.933-6.745 4.888-10.46.847.26 1.662.39 2.444.39 2.216 0 4.203-.75 5.963-2.248 3.193 2.216 6.32 4.692 9.384 7.43-.39 3.715-1.173 7.3-2.346 10.753-5.344 1.108-10.98 1.9-16.91 2.346-.847-2.085-2.38-3.65-4.594-4.692zm17.89-23.07c0-2.15-.717-4.106-2.15-5.865 1.37-1.76 2.737-3.356 4.106-4.8 2.346 5.344 3.715 10.85 4.106 16.52-2.15-1.63-4.236-3.096-6.256-4.4.13-.587.196-1.075.196-1.466z" fill="#fff"/></g><defs><clipPath id="A"><path fill="#fff" d="M0 0h100.1v100H0z"/></clipPath></defs></svg>
