<svg xmlns="http://www.w3.org/2000/svg" width="997" height="174" fill="none" xmlns:v="https://vecta.io/nano"><path d="M7.172 86.64c0-14.203 4.64-26.086 13.922-35.648s21.375-14.344 36.28-14.344c15.047 0 27.305 4.78 36.773 14.344s14.204 21.54 14.204 35.93c0 14.672-4.83 26.79-14.485 36.35-9.61 9.516-21.844 14.274-36.703 14.274-9.47 0-18.187-2.25-26.156-6.75-7.922-4.547-13.875-10.852-17.86-18.914-3.984-8.1-5.977-16.524-5.977-25.242zm16.102.07c0 10.734 3.14 19.734 9.422 27s14.53 10.898 24.75 10.898c10.125 0 18.445-3.703 24.96-11.11 6.516-7.453 9.773-16.336 9.773-26.648 0-10.406-3.328-19.195-9.984-26.367-6.61-7.22-14.93-10.828-24.96-10.828-9.984 0-18.14 3.54-24.47 10.617s-9.492 15.89-9.492 26.437zm121.36-18.773v8.227c8.578-6.187 16.406-9.28 23.484-9.28 4.406 0 8.04 1.055 10.9 3.164 2.906 2.063 4.804 4.617 5.695 7.664.89 3 1.336 7.406 1.336 13.22v33.187h11.46V136h-24.82V91.492c0-5.156-.774-8.508-2.32-10.055-1.547-1.594-3.445-2.39-5.695-2.39-5.906 0-12.586 2.883-20.04 8.648v36.422h11.742V136H119.32v-11.883h11.953V79.82H119.32V67.938h25.313zm68.344 56.18v-74.04h-12.094V38.195h25.453v85.922h10.406V136h-35.86v-11.883h12.094zm40.43-79.312c0-2.156.75-4.03 2.25-5.625 1.547-1.594 3.492-2.39 5.836-2.39 2.203 0 4.102.773 5.696 2.32s2.4 3.445 2.4 5.695-.797 4.172-2.4 5.766c-1.594 1.547-3.493 2.32-5.696 2.32a7.85 7.85 0 0 1-5.765-2.391c-1.547-1.594-2.32-3.492-2.32-5.695zm1.9 79.312V79.82h-10.617V67.938h23.976v56.18h10.477V136h-34.453v-11.883h10.617zm55.968-56.18v8.227c8.58-6.187 16.407-9.28 23.485-9.28 4.406 0 8.04 1.055 10.898 3.164 2.906 2.063 4.805 4.617 5.696 7.664.9 3 1.336 7.406 1.336 13.22v33.187h11.46V136h-24.82V91.492c0-5.156-.773-8.508-2.32-10.055-1.547-1.594-3.446-2.39-5.696-2.39-5.906 0-12.585 2.883-20.04 8.648v36.422h11.743V136H285.96v-11.883h11.953V79.82H285.96V67.938h25.312zm130.57 37.406H384.61c.844 6.28 3.33 11.367 7.453 15.258s9.4 5.836 15.82 5.836c9.328 0 16.71-3.75 22.148-11.25l11.813 5.203c-3.844 5.953-8.836 10.382-14.977 13.29-6.14 2.86-12.562 4.29-19.265 4.29-10.407 0-19.313-3.235-26.72-9.703-7.36-6.516-11.04-15.282-11.04-26.297 0-10.453 3.586-19.055 10.758-25.805 7.218-6.75 15.492-10.125 24.82-10.125 9.14 0 17.414 3.305 24.82 9.914 7.453 6.563 11.32 16.36 11.602 29.39zm-13.782-9.703c-.937-4.78-3.42-9.094-7.453-12.937-4.03-3.89-8.976-5.836-14.836-5.836-5.343 0-9.914 1.758-13.71 5.273-3.796 3.47-6.117 7.97-6.96 13.5h42.96zM456.61 136v-17.297h17.297V136H456.61z" fill="#4C3245"/><path d="M536.592 68.8c6.016 0 11.264 1.024 15.744 3.072s7.904 4.832 10.272 8.352 3.552 7.456 3.552 11.808c0 7.168-2.24 12.8-6.72 16.896-4.48 4.032-12.096 6.048-22.848 6.048H523.92v18.432a2.49 2.49 0 0 1-2.592 2.592h-20.64a2.49 2.49 0 0 1-2.592-2.592V71.392a2.49 2.49 0 0 1 .768-1.824 2.49 2.49 0 0 1 1.824-.768h35.904zm-.384 28.416c1.536 0 2.752-.448 3.648-1.344.896-.96 1.344-2.208 1.344-3.744 0-1.6-.448-2.912-1.344-3.936s-2.112-1.536-3.648-1.536h-12.192v10.56h12.192zm58.33 35.52c-.832 2.176-2.272 3.264-4.32 3.264h-18.144c-.576 0-1.088-.192-1.536-.576-.384-.448-.576-.96-.576-1.536l.096-.576 20.928-61.344c.256-.832.736-1.568 1.44-2.208s1.664-.96 2.88-.96h26.688c1.216 0 2.176.32 2.88.96s1.184 1.376 1.44 2.208l20.928 61.344.096.576c0 .576-.224 1.088-.672 1.536-.384.384-.864.576-1.44.576h-18.144c-2.048 0-3.488-1.088-4.32-3.264l-2.4-6.72H596.94l-2.4 6.72zm14.112-45.408l-6.816 19.968h13.632l-6.816-19.968zM699.717 68.8c6.016 0 11.264 1.024 15.744 3.072s7.904 4.832 10.272 8.352 3.552 7.456 3.552 11.808c0 7.168-2.24 12.8-6.72 16.896-4.48 4.032-12.096 6.048-22.848 6.048h-12.672v18.432a2.49 2.49 0 0 1-2.592 2.592h-20.64a2.49 2.49 0 0 1-2.592-2.592V71.392a2.49 2.49 0 0 1 .768-1.824 2.49 2.49 0 0 1 1.824-.768h35.904zm-.384 28.416c1.536 0 2.752-.448 3.648-1.344.896-.96 1.344-2.208 1.344-3.744 0-1.6-.448-2.912-1.344-3.936s-2.112-1.536-3.648-1.536H687.14v10.56h12.192zm103.26 20.064a2.49 2.49 0 0 1 2.592 2.592v13.536a2.49 2.49 0 0 1-2.592 2.592H741.92a2.49 2.49 0 0 1-2.592-2.592V71.392a2.49 2.49 0 0 1 .768-1.824 2.49 2.49 0 0 1 1.824-.768h59.712a2.49 2.49 0 0 1 1.824.768 2.49 2.49 0 0 1 .768 1.824v13.536a2.49 2.49 0 0 1-2.592 2.592h-37.344v6.048h32.064a2.49 2.49 0 0 1 2.592 2.592v12.48a2.49 2.49 0 0 1-2.592 2.592h-32.064v6.048h38.304zm88.57 15.744c.128.256.192.544.192.864 0 .576-.224 1.088-.672 1.536-.384.384-.864.576-1.44.576H867.45c-.896 0-1.728-.224-2.496-.672-.704-.448-1.216-1.024-1.536-1.728l-8.448-19.008h-8.064v18.816a2.49 2.49 0 0 1-2.592 2.592h-20.736a2.49 2.49 0 0 1-2.592-2.592V71.392a2.49 2.49 0 0 1 .768-1.824 2.49 2.49 0 0 1 1.824-.768h37.344c5.76 0 10.784.928 15.072 2.784 4.352 1.856 7.68 4.544 9.984 8.064s3.456 7.648 3.456 12.384c0 8.704-3.36 15.008-10.08 18.912l11.808 22.08zm-32.256-36.192c1.408 0 2.496-.448 3.264-1.344.768-.96 1.152-2.144 1.152-3.552s-.384-2.624-1.152-3.648c-.704-1.088-1.792-1.632-3.264-1.632h-12v10.176h12zm80.987-3.648c7.04.768 12.672 2.016 16.896 3.744 4.288 1.728 7.392 4 9.312 6.816s2.88 6.336 2.88 10.56c0 4.608-1.504 8.64-4.512 12.096-2.944 3.392-7.04 6.016-12.288 7.872-5.248 1.792-11.232 2.688-17.952 2.688-7.488 0-13.824-.928-19.008-2.784s-9.056-4.32-11.616-7.392c-2.56-3.136-3.84-6.56-3.84-10.272 0-.64.192-1.152.576-1.536.448-.384.992-.576 1.632-.576h19.68c1.344 0 2.432.416 3.264 1.248 1.088 1.024 2.304 1.728 3.648 2.112 1.344.32 3.232.48 5.664.48 6.08 0 9.12-.928 9.12-2.784 0-.768-.416-1.408-1.248-1.92-.768-.576-2.176-1.056-4.224-1.44-1.984-.448-4.928-.896-8.832-1.344-8.768-1.024-15.488-3.2-20.16-6.528-4.672-3.392-7.008-8.16-7.008-14.304 0-4.352 1.312-8.192 3.935-11.52s6.337-5.92 11.137-7.776c4.864-1.856 10.496-2.784 16.896-2.784 6.656 0 12.48 1.056 17.472 3.168 4.992 2.048 8.8 4.608 11.424 7.68s3.936 6.08 3.936 9.024c0 .64-.224 1.152-.672 1.536-.384.384-.928.576-1.632.576h-20.64c-1.088 0-2.08-.384-2.976-1.152-.704-.64-1.536-1.152-2.496-1.536s-2.432-.576-4.416-.576c-4.288 0-6.432.896-6.432 2.688 0 .96.832 1.728 2.496 2.304 1.664.512 4.992 1.056 9.984 1.632z" fill="#4C3245"/></svg>
