<svg xmlns="http://www.w3.org/2000/svg" xmlns:xlink="http://www.w3.org/1999/xlink" width="941.404" height="435.42" xmlns:v="https://vecta.io/nano"><style><![CDATA[.B{fill:#3f3d56}.C{fill:#fff}.D{fill:#d0cde1}.E{fill:#6c63ff}.F{fill:#f2f2f2}]]></style><path d="M84.494 414.524l-1.267-.475c-.278-.105-27.993-10.723-40.975-34.8s-6.626-53.067-6.56-53.356l.3-1.32 1.267.475c.278.105 27.992 10.723 40.975 34.8s6.626 53.067 6.56 53.356zM44.33 378.128c10.976 20.357 32.877 30.79 38.426 33.174 1.055-5.947 4.364-29.997-6.603-50.334s-32.874-30.786-38.426-33.174c-1.056 5.95-4.363 29.998 6.603 50.334z" class="B"/><path d="M52.173 370.804C75.504 384.84 84.5 412.72 84.5 412.72s-28.842 5.123-52.173-8.914S0 361.9 0 361.9s28.842-5.123 52.173 8.914z" class="D"/><path d="M798.85 5.362H538.68V0H420.7v5.362H159.468a17.6 17.6 0 0 0-17.599 17.599v356.252c0 9.72 7.88 17.6 17.6 17.6H798.85a17.6 17.6 0 0 0 17.599-17.599V22.96a17.6 17.6 0 0 0-17.599-17.599z" class="B"/><g class="E"><path d="M165.464 36.464h627.39v353.913h-627.39z"/><circle cx="478.623" cy="20.377" r="6.435"/></g><g class="B"><path d="M756.838 81.507h-29.74v-29.74h29.74zm-28.447-1.293h27.154V53.06H728.4zm105.674 303.728h-61.23v-4.412a.88.88 0 0 0-.256-.62.87.87 0 0 0-.62-.256h-20.993a.88.88 0 0 0-.62.256.87.87 0 0 0-.256.62v4.412h-13.12v-4.412a.88.88 0 0 0-.256-.62.87.87 0 0 0-.62-.256H715.1a.88.88 0 0 0-.62.256.87.87 0 0 0-.256.62v4.412H701.1v-4.412a.88.88 0 0 0-.256-.62.87.87 0 0 0-.62-.256H679.23a.88.88 0 0 0-.62.256.87.87 0 0 0-.256.62v4.412h-13.12v-4.412a.88.88 0 0 0-.256-.62.87.87 0 0 0-.62-.256h-20.98a.88.88 0 0 0-.62.256.87.87 0 0 0-.256.62v4.412h-13.12v-4.412a.88.88 0 0 0-.256-.62.87.87 0 0 0-.62-.256h-20.993a.88.88 0 0 0-.62.256.87.87 0 0 0-.256.62v4.412h-13.12v-4.412a.88.88 0 0 0-.256-.62.87.87 0 0 0-.62-.256H571.65a.88.88 0 0 0-.62.256.87.87 0 0 0-.256.62v4.412h-13.12v-4.412a.88.88 0 0 0-.256-.62.87.87 0 0 0-.62-.256H392.34a.88.88 0 0 0-.62.256.87.87 0 0 0-.256.62v4.412h-13.12v-4.412a.88.88 0 0 0-.256-.62.87.87 0 0 0-.62-.256h-20.993a.88.88 0 0 0-.62.256.87.87 0 0 0-.256.62v4.412h-13.12v-4.412a.88.88 0 0 0-.256-.62.87.87 0 0 0-.62-.256H320.6a.88.88 0 0 0-.62.256.87.87 0 0 0-.256.62v4.412h-13.12v-4.412a.88.88 0 0 0-.256-.62.87.87 0 0 0-.62-.256H284.75a.88.88 0 0 0-.62.256.87.87 0 0 0-.256.62v4.412h-13.12v-4.412a.88.88 0 0 0-.256-.62.87.87 0 0 0-.62-.256h-20.993a.88.88 0 0 0-.62.256.87.87 0 0 0-.256.62v4.412h-13.12v-4.412a.88.88 0 0 0-.256-.62.87.87 0 0 0-.62-.256H213.02a.88.88 0 0 0-.62.256.87.87 0 0 0-.256.62v4.412h-13.12v-4.412a.88.88 0 0 0-.256-.62.87.87 0 0 0-.62-.256h-20.993a.88.88 0 0 0-.62.256.87.87 0 0 0-.256.62v4.412h-40.23c-11.594 0-20.993 9.4-20.993 20.993v9.492c0 11.594 9.4 20.993 20.993 20.993h698.014c11.594 0 20.993-9.4 20.993-20.993v-9.493c0-11.594-9.4-20.993-20.993-20.993z"/><path d="M28.7 413.883h912.693v2.785H28.7zM754.072 233.67h-202v-115h202zm-200-2h198v-111h-198zm-170 25h-180v-112h180zm-178-2h176v-108h-176z"/></g><g class="D"><use xlink:href="#B"/><use xlink:href="#B" x="359" y="-25"/></g><g fill="#2f2e41"><circle cx="482.693" cy="260.849" r="86.292"/><path d="M449.365 379.018l-25.797-4.67 8.367-53.864 25.796 4.67-8.366 53.864zm34.162-49.194l25.796 4.67-8.367 46.218-25.796-4.67z"/><ellipse cx="626.082" cy="611.196" rx="8.192" ry="21.846" transform="matrix(.19788 -.980226 .980226 .19788 -226.21522 871.66478)"/><ellipse cx="572.111" cy="611.257" rx="8.192" ry="21.846" transform="matrix(.131327 -.991339 .991339 .131327 -238.2839 865.84819)"/></g><circle cx="488.734" cy="239.741" r="29.492" class="C"/><circle cx="500.856" cy="229.17" r="9.831" class="B"/><path d="M414.62 166.972c-1.298-31.947 26.236-59.006 61.498-60.438s64.9 23.304 66.197 55.25S519.1 201 483.84 202.423s-67.92-3.504-69.22-35.45z" class="C"/><g fill="#2f2e41"><ellipse cx="691.67" cy="477.418" rx="43.146" ry="13.545" transform="matrix(.974722 -.223422 .223422 .974722 -218.47935 -65.68735)"/><ellipse cx="522.282" cy="505.587" rx="43.146" ry="13.545" transform="matrix(.974722 -.223422 .223422 .974722 -229.05476 -102.82038)"/></g><path d="M458.993 294.855c-1.934 10.685 5.16 20.915 15.845 22.85s20.915-5.16 22.85-15.845-6.327-14.466-17.012-16.4-19.748-1.29-21.682 9.396z" class="C"/><path d="M154.535 13.122h141.887V148.1H154.535z" class="D"/><path d="M170.658 29.246h109.64v83.842h-109.64z" class="C"/><path d="M170.55 122.98h59.637v3.14H170.55zm0 9.416h59.637v3.14H170.55z" class="F"/><circle cx="190.167" cy="71.19" r="12.555" class="B"/><circle cx="225.478" cy="71.19" r="12.555" class="E"/><circle cx="260.789" cy="71.19" r="12.555" fill="#e6e6e6"/><circle cx="225.478" cy="20.969" r="6.278" class="B"/><path d="M222.022 274.46H363.91v134.967H222.022z" class="D"/><path d="M238.146 290.582h109.64v83.842h-109.64z" class="C"/><path d="M262.272 304.36h38.437v38.437h-38.437z" class="E"/><path d="M276.986 313.973v46.674h46.674v-46.674zm44.65 44.65H279v-42.624h42.625z" class="B"/><path d="M238.037 382.747h59.637v3.14h-59.637z" class="F"/><circle cx="292.966" cy="282.306" r="6.278" class="B"/><path d="M591.437 234.053h141.887V369.02H591.437z" class="D"/><path d="M607.56 250.176H717.2v83.842H607.56z" class="C"/><path d="M650.587 315.812h23.587v7h-23.587zm-28.515-54.42h80.617v2.996h-80.617zm0 9.487h80.617v2.996h-80.617zm0 9.485h80.617v2.996h-80.617zm0 9.485h80.617v2.996h-80.617zm0 9.487h80.617v2.996h-80.617z" class="B"/><path d="M607.45 342.34h59.637v3.14H607.45zm0 7.847h83.178v3.14H607.45z" class="F"/><circle cx="662.38" cy="241.9" r="6.278" class="B"/><defs ><path id="B" d="M288.166 213.67l-.172-2.236c-.516-4.644 1.032-9.718 5.332-14.877 3.87-4.56 6.02-7.912 6.02-11.782 0-4.386-2.752-7.3-8.17-7.396a15.28 15.28 0 0 0-8.686 2.666l-2.064-5.418c2.838-2.064 7.74-3.44 12.298-3.44 9.9 0 14.362 6.106 14.362 12.642 0 5.85-3.268 10.063-7.396 14.964-3.784 4.472-5.16 8.256-4.902 12.642l.086 2.236zm-1.892 12.04c-.094-1.418.41-2.81 1.39-3.84s2.347-1.6 3.768-1.577c3 0 5.074 2.235 5.074 5.418a5.12 5.12 0 0 1-7.738 4.611 5.12 5.12 0 0 1-2.496-4.611z"/></defs></svg>