<?xml version="1.0" encoding="UTF-8"?>
<!DOCTYPE svg  PUBLIC '-//W3C//DTD SVG 20010904//EN'  'http://www.w3.org/TR/2001/REC-SVG-20010904/DTD/svg10.dtd'>
<svg width="200pt" height="199pt" version="1.0" viewBox="0 0 200 199" xmlns="http://www.w3.org/2000/svg">
<g transform="translate(0 199) scale(.1 -.1)" fill="#CF4B32">
<path d="m854 1960c-29-30-32-31-79-20-63 14-91 7-135-34-19-18-57-45-83-60-35-20-49-35-54-56-3-18-23-44-52-69-29-24-51-52-57-73-9-31-13-33-69-40-48-6-62-5-77 9-17 15-18 15-12-16 6-27 2-37-26-66-18-19-37-32-42-29-4 3-8-1-8-9 0-7-13-26-30-42-19-18-30-39-30-57s-12-39-35-62c-36-36-42-67-26-126 5-17 1-36-12-58-28-48-19-118 19-151 25-21 29-32 30-85 3-91 7-112 28-135 19-21 19-22-3-42-16-15-21-28-17-47 3-15 8-45 12-67 3-22 12-50 19-61 8-12 15-41 17-65 3-39 7-46 41-64 29-15 40-29 48-60 15-54 33-73 89-89 25-8 61-28 78-46 31-30 36-32 96-29 37 2 69-1 77-8 8-6 40-16 73-22 61-11 67-14 129-68 20-18 48-33 61-33s35-9 50-21c16-13 54-25 94-31 103-17 148-15 170 5 16 15 30 17 64 12 57-9 94 7 119 50 17 29 27 35 55 35 18 0 44 5 57 11 26 12 60 66 71 111 4 19 14 28 36 33 16 4 39 20 51 36 11 16 29 29 40 29 10 0 19 5 19 11s12 26 26 44c19 26 34 35 62 37 29 2 40 9 50 30 7 15 30 41 52 58 22 18 40 38 40 45 0 8 15 28 32 44 28 26 33 38 34 81 0 38 6 56 24 75 16 17 23 36 22 58-1 17-3 70-4 117-3 90-18 129-58 150-16 9-20 21-20 64 0 39-6 60-21 79-17 23-19 35-13 85 4 40 3 62-5 66-6 4-11 32-11 62 0 39-4 56-15 60-8 4-15 15-15 25 0 33-39 99-58 99-23 0-42 19-42 43 0 10-13 32-29 48-23 23-38 29-72 29-36 0-49 6-81 37-36 35-39 36-120 39-46 1-112 5-148 9-66 8-88 21-177 106-12 12-24 16-27 10-8-13-99-3-145 15-44 18-42 19-77-16zm179-139c9-10 6-23-15-62-16-27-28-56-28-64s-15-21-32-28c-48-20-72-52-73-95 0-23-11-52-25-72-19-26-24-46-23-80 1-24-2-49-7-55-11-14-6-175 6-183 18-13 54-70 54-86 0-17-35-22-45-7-3 5-19 13-36 16-17 4-40 16-51 27s-32 23-47 27c-16 4-32 20-41 39-9 18-25 39-38 48-12 8-22 26-22 38 0 13-10 35-21 50-28 36-28 74 1 96 21 15 22 23 17 71-3 38-1 60 9 74 8 10 14 31 14 46 0 16 9 35 23 46 12 10 34 35 50 55 18 25 41 41 67 49 22 7 46 22 55 35 10 15 27 24 52 27 62 7 143 1 156-12zm356-167c17-13 36-15 77-11 52 5 55 4 69-24 12-22 23-29 45-29 16 0 34-6 39-12 6-7 22-28 37-45 14-18 32-33 40-33 9 0 14-11 14-27 1-16 7-39 15-53 25-45 20-54-27-45-24 4-63 7-87 7-30-1-52 5-69 18-28 22-77 26-119 8-15-6-51-12-78-12-33-1-61-8-80-21-17-11-48-22-70-25-31-4-44-12-60-37-11-18-28-32-37-33-16 0-88-83-88-101 0-5-9-9-20-9-17 0-20 7-22 43-4 112 0 169 16 180 8 7 16 30 18 52 2 32 7 41 25 43 26 4 45 25 58 66 8 25 17 32 51 37 23 4 56 17 75 28 19 12 45 21 59 21s36 7 50 14c34 19 42 19 69 0zm-1019-210c3-30 14-61 27-78 16-20 21-36 16-56-9-47 5-78 47-106 28-19 40-34 40-50 0-33 34-64 70-64 21 0 36-8 51-30 28-37 92-60 192-67 62-5 77-9 77-22-1-21-42-67-68-75-11-4-26-13-32-21-7-8-25-15-40-15s-39-9-52-20c-14-11-38-20-54-20-76-1-93 0-146 7-44 6-61 14-78 35-12 15-35 31-52 36-32 8-41 18-58 64-5 15-28 39-50 53-38 24-41 29-35 58 11 56 16 67 28 67 7 0-2 9-19 19-30 18-31 21-26 73 2 30 15 71 28 94 13 22 24 48 24 56 0 21 81 119 94 115 6-2 13-26 16-53zm1098-211c26-4 32-10 32-29 0-25 10-30 26-14 21 21 98-18 147-75 26-29 57-55 69-57 20-3 24-11 29-62 5-40 13-64 24-72 15-12 16-17 5-43-8-20-10-50-5-86 6-51 4-57-27-101-18-26-42-62-53-82-23-41-46-58-68-49-13 5-15 16-10 56 5 46 4 52-26 78-27 25-30 34-25 61 8 41-16 79-62 98-29 12-34 19-34 47 0 47-24 76-69 83-29 5-40 12-48 34-8 21-19 29-48 34-21 4-47 14-59 21-12 8-52 16-91 19-38 3-71 5-72 5-2 1-3 7-3 14 0 14 31 44 67 64 34 19 140 53 165 53 13 0 30 5 38 10 8 6 26 8 40 5 14-4 40-9 58-12zm-324-247c23 9 66-22 66-47 0-17 3-19 13-11 21 17 97-24 109-59 5-15 20-34 33-43 16-10 25-29 29-61 4-25 16-54 27-64 18-17 19-20 3-56-13-32-14-45-4-75 11-34 10-40-19-85-20-32-31-62-31-86 0-33-4-39-37-56-24-11-45-32-56-55-14-29-25-38-44-38-26 0-103-38-103-51 0-3-19-7-42-7-24 0-68-3-98-5-49-5-121 9-169 32-27 13-5 26 40 23 42-3 48 0 77 33 18 19 32 46 32 58 0 29 7 37 57 69 32 21 45 38 54 70 7 24 23 54 36 67 25 26 38 78 29 116-5 18-1 27 14 35 17 9 20 17 14 48-3 20-10 41-15 47-5 5-9 27-9 49 0 25-7 47-19 60-10 12-22 41-26 66-7 39-6 43 7 32 9-7 23-10 32-6zm-130-88c13-66 14-115 1-138-7-14-11-37-8-51 3-15-1-37-10-50-8-13-17-36-21-50-3-16-20-35-39-47-21-12-37-31-43-53-8-29-15-35-46-40-20-3-54-19-75-35-34-26-46-29-112-29-71 0-75 1-82 25l-7 25-1-27c-1-15-5-29-9-32-15-9-112 25-112 40 0 8-7 14-16 14s-27 9-41 20-34 20-44 20-25 12-33 27c-8 16-26 39-40 52-20 19-26 34-26 68 0 48 16 62 53 46 14-6 35-6 59 0 35 9 41 7 63-17 13-14 34-26 47-26s33-3 45-6c14-4 27 1 39 14 14 17 25 19 76 15 50-5 62-3 81 15 12 11 38 23 57 27 42 8 80 31 80 48 1 6 15 21 32 32 18 11 35 31 38 45s17 30 30 37c13 6 28 21 32 32 10 28 26 27 32-1z"/>
</g>
</svg>
