<svg xmlns="http://www.w3.org/2000/svg" height="512" width="512" xmlns:v="https://vecta.io/nano"><path fill="#0F9D58" d="M454.843 141c-13.02-22.417-172.832-115-198.86-115-26.02 0-185.895 92.35-198.84 115s-13.02 207.358 0 230.01C70.162 393.65 229.983 486 255.984 486s185.84-92.466 198.85-115 13.016-207.583.008-230zm-144.98 257.15c-3.56 0-36.756-32.137-34.14-34.762.78-.78 5.625-1.328 15.768-1.644l.844-77.553c.038-1.814-.395-3.08-.395-5.256h-71.812c0 6.38-.412 32.523 1.232 65.48.205 4.078-1.42 5.353-5.158 5.335l-27.32-.07c-3.683.01-5.274-1.374-5.157-5.488.826-30.043 2.66-75.488-.134-191.07v-2.85c-8.688-.314-14.717-.862-15.508-1.652-2.624-2.624 31.032-34.76 34.58-34.76 3.558 0 36.99 32.145 34.383 34.76-.782.78-7.098 1.338-15.067 1.652v2.84c-2.174 23.135-1.823 71.506-2.362 94.686h72.107c0-4.09.35-31.212-1.077-75.145-.09-3.047.853-4.646 3.78-4.672l29.855-.055c3.108.02 4.105 1.546 4.043 4.834-3.28 171.86-.594 159.867-.594 188.975 7.97.315 15.112.864 15.895 1.655 2.588 2.615-30.205 34.76-33.763 34.76h0z"/></svg>
